<svg width="20" height="20" fill="none" xmlns="http://www.w3.org/2000/svg"><path d="M16.36 6.664c.012.146.012.291.012.436 0 4.438-3.378 9.55-9.55 9.55a9.484 9.484 0 0 1-5.155-1.507 7 7 0 0 0 .81.042 6.725 6.725 0 0 0 4.168-1.434 3.364 3.364 0 0 1-3.14-2.328c.208.031.417.052.635.052.3 0 .603-.042.884-.114a3.356 3.356 0 0 1-2.692-3.294v-.042c.448.25.967.405 1.517.426a3.352 3.352 0 0 1-1.497-2.795c0-.624.166-1.195.457-1.694a9.547 9.547 0 0 0 6.922 3.513 3.815 3.815 0 0 1-.084-.77 3.355 3.355 0 0 1 3.357-3.356c.967 0 1.84.405 2.453 1.06a6.63 6.63 0 0 0 2.13-.81 3.35 3.35 0 0 1-1.476 1.85 6.727 6.727 0 0 0 1.932-.52 7.205 7.205 0 0 1-1.682 1.735Z" fill="#5B1FA6"/></svg>