<svg width="32" height="22" fill="none" xmlns="http://www.w3.org/2000/svg"><path opacity=".5" d="M19.455 15.385a4.812 4.812 0 0 0 1.799 1.965c.773.474 1.665.72 2.573.713 1.837 0 3.01-.914 3.01-2.176 0-1.511-1.205-2.047-3.226-2.928l-1.108-.473c-3.198-1.355-5.324-3.054-5.324-6.644 0-3.308 2.534-5.825 6.492-5.825a6.578 6.578 0 0 1 3.69.823 6.533 6.533 0 0 1 2.619 2.715L26.528 5.76a3.002 3.002 0 0 0-1.129-1.388 3.025 3.025 0 0 0-1.72-.503 1.938 1.938 0 0 0-1.48.48 1.92 1.92 0 0 0-.642 1.41c0 1.324.824 1.859 2.72 2.678l1.108.472c3.767 1.607 5.892 3.245 5.892 6.928 0 3.97-3.134 6.146-7.345 6.146a8.55 8.55 0 0 1-4.708-1.067 8.493 8.493 0 0 1-3.368-3.444l3.599-2.087Zm-15.656.386c.697 1.23 1.33 2.268 2.85 2.268 1.455 0 2.374-.567 2.374-2.77V.275h4.433V15.33c0 4.566-2.692 6.644-6.619 6.644a6.908 6.908 0 0 1-3.95-.989 6.857 6.857 0 0 1-2.697-3.04L3.8 15.772Z" fill="#9995A6"/></svg>