<svg width="20" height="20" fill="none" xmlns="http://www.w3.org/2000/svg"><path d="M10 6.148a3.853 3.853 0 1 0 0 7.706 3.853 3.853 0 0 0 0-7.706Zm0 6.355a2.503 2.503 0 1 1 0-5.006 2.503 2.503 0 0 1 0 5.006ZM14.005 6.904a.898.898 0 1 0 0-1.797.898.898 0 0 0 0 1.797Z" fill="#5B1FA6"/><path d="M17.11 5.093a3.836 3.836 0 0 0-2.193-2.194 5.505 5.505 0 0 0-1.822-.35c-.803-.035-1.057-.045-3.092-.045s-2.295 0-3.091.045a5.462 5.462 0 0 0-1.82.35 3.833 3.833 0 0 0-2.194 2.194 5.487 5.487 0 0 0-.35 1.821c-.035.802-.046 1.056-.046 3.092 0 2.035 0 2.294.046 3.091.013.624.13 1.239.35 1.823a3.843 3.843 0 0 0 2.195 2.193 5.485 5.485 0 0 0 1.82.375c.803.035 1.057.046 3.092.046s2.296 0 3.092-.046a5.512 5.512 0 0 0 1.821-.349 3.845 3.845 0 0 0 2.195-2.194c.219-.583.336-1.198.349-1.822.035-.801.046-1.055.046-3.091 0-2.036 0-2.294-.046-3.092a5.485 5.485 0 0 0-.351-1.847Zm-1.014 7.943c-.006.48-.093.956-.26 1.407a2.488 2.488 0 0 1-1.426 1.425 4.152 4.152 0 0 1-1.392.26c-.791.036-1.015.045-3.045.045-2.031 0-2.239 0-3.045-.045a4.133 4.133 0 0 1-1.391-.26 2.486 2.486 0 0 1-1.433-1.425 4.233 4.233 0 0 1-.259-1.391c-.036-.792-.044-1.015-.044-3.045 0-2.031 0-2.239.044-3.046.005-.48.093-.956.26-1.406a2.489 2.489 0 0 1 1.432-1.427 4.175 4.175 0 0 1 1.39-.259c.793-.036 1.016-.046 3.046-.046 2.031 0 2.24 0 3.045.046.476.006.946.094 1.392.26a2.493 2.493 0 0 1 1.427 1.426c.163.446.251.916.259 1.39.036.793.045 1.016.045 3.047 0 2.03 0 2.248-.036 3.045h-.01v-.001Z" fill="#5B1FA6"/></svg>