<svg width="16" height="16" fill="none" xmlns="http://www.w3.org/2000/svg"><path d="M11.771 4.895a5.334 5.334 0 1 1-7.543 7.543 5.334 5.334 0 0 1 7.543-7.543" stroke="#F67ACB" stroke-width="1.25"/><path d="M8.333 8.665A.332.332 0 0 0 8 8.333a.334.334 0 0 0-.333.334c0 .184.148.333.332.333.184 0 .334-.15.334-.334" stroke="#F67ACB" stroke-width="1.25" stroke-linecap="round" stroke-linejoin="round"/><path d="M8 6v2.667M6.667 1.333h2.666M14 4l-1.333-1.333.666.666-1.562 1.562" stroke="#F67ACB" stroke-width="1.25"/></svg>