<svg width="31" height="31" fill="none" xmlns="http://www.w3.org/2000/svg"><path opacity=".5" d="M15.482 31C6.826 30.834.061 23.738 0 15.482.168 6.832 7.226.061 15.482 0 24.132.173 30.94 7.215 31 15.482 30.829 24.14 23.749 30.94 15.482 31Zm0-29.902c-8.037.159-14.363 6.71-14.42 14.384.157 8.044 6.746 14.364 14.42 14.42 8.044-.157 14.364-6.745 14.42-14.42-.152-8.043-6.757-14.328-14.42-14.384Zm-3.72 27.068 3.968-11.408 4.145 11.16c-2.792.935-5.432.991-8.113.248ZM8.715 8.006a24.287 24.287 0 0 1-4.251.213C7.096 4.457 11.31 2.34 15.482 2.303c3.413.064 6.595 1.355 8.928 3.472-1.082-.08-1.73.394-2.196 1.204-.678 2.091.754 3.64 1.559 5.208.76 1.434.7 3.065.283 4.464l-1.984 6.767-4.783-14.207c.498-.046 1-.06 1.453-.141.535-.12.653-.618.283-.921a.61.61 0 0 0-.39-.142l-2.87.212h-2.178c-.615.037-2.352-.557-2.498.248-.075.31.157.554.425.603a67.05 67.05 0 0 0 1.453.177l2.09 5.598-2.905 8.573L7.334 9.211c.51-.044 1.026-.06 1.488-.141.378-.048.543-.237.496-.567a.637.637 0 0 0-.603-.496Zm-5.314 2.197 6.342 17.148a13.496 13.496 0 0 1-5.385-4.765c-2.356-3.76-2.604-8.53-.957-12.383Zm24.782 8.804c-1.04 3.4-3.167 6.216-6.11 7.919.14-.378.365-1.016.672-1.913l3.685-10.7c.354-1.04.602-2.196.744-3.472.048-.522.05-1.048-.036-1.523 1.51 3.256 1.938 6.481 1.045 9.69Z" fill="#9995A6"/></svg>