<svg width="18" height="19" fill="none" xmlns="http://www.w3.org/2000/svg"><path opacity=".5" d="M13.243 6.007a6 6 0 1 1-8.487 8.486 6 6 0 0 1 8.487-8.486" stroke="#5B1FA6" stroke-width="1.25"/><path opacity=".5" d="M9.375 10.248A.373.373 0 0 0 9 9.876a.376.376 0 0 0-.375.376c0 .207.167.374.374.374a.376.376 0 0 0 .376-.376" stroke="#5B1FA6" stroke-width="1.25" stroke-linecap="round" stroke-linejoin="round"/><path opacity=".5" d="M9 7.25v3M7.5 2h3M15.75 5l-1.5-1.5.75.75-1.757 1.757" stroke="#5B1FA6" stroke-width="1.25"/></svg>