<svg width="32" height="28" fill="none" xmlns="http://www.w3.org/2000/svg"><g opacity=".5" fill="#9995A6"><path d="M25.819 9.075c-.335-.114-.672-.22-1.01-.32.055-.228.107-.458.155-.69.765-3.722.265-6.721-1.443-7.708-1.636-.948-4.318.04-7.024 2.4a21.25 21.25 0 0 0-.782.72c-.17-.164-.344-.325-.523-.482C12.356.471 9.513-.592 7.807.398c-1.635.95-2.121 3.769-1.432 7.297.068.349.146.696.232 1.042-.391.11-.779.233-1.163.366C2.124 10.265 0 12.085 0 13.973c0 1.951 2.28 3.907 5.742 5.093.28.096.564.184.85.267-.092.37-.175.744-.246 1.123-.654 3.467-.144 6.22 1.488 7.163 1.686.974 4.514-.027 7.27-2.441.219-.191.437-.393.655-.605.276.266.56.525.85.776 2.67 2.301 5.305 3.23 6.935 2.285 1.685-.978 2.232-3.935 1.521-7.532a18.306 18.306 0 0 0-.188-.841c.199-.06.393-.12.584-.183 3.598-1.195 5.942-3.128 5.942-5.103-.001-1.897-2.193-3.73-5.584-4.9Zm-8.44-5.304c2.318-2.022 4.485-2.82 5.473-2.25 1.051.608 1.46 3.059.8 6.273-.044.209-.091.418-.142.626a31.911 31.911 0 0 0-4.199-.665 31.482 31.482 0 0 0-2.654-3.32c.235-.228.475-.45.721-.664h.002ZM9.273 15.587a39.522 39.522 0 0 0 1.876 3.244 28.471 28.471 0 0 1-2.894-.466c.277-.898.619-1.83 1.018-2.778Zm0-3.162A29.083 29.083 0 0 1 8.274 9.7a30.15 30.15 0 0 1 2.848-.49 41.326 41.326 0 0 0-1.851 3.213h.001Zm.713 1.58a38.23 38.23 0 0 1 2.858-4.965 37.997 37.997 0 0 1 5.725 0 40.77 40.77 0 0 1 1.513 2.421c.476.825.927 1.666 1.353 2.525-.42.866-.87 1.715-1.35 2.548-.476.828-.977 1.64-1.505 2.436-.932.065-1.897.101-2.878.101-.981 0-1.928-.03-2.843-.09a38.017 38.017 0 0 1-2.875-4.975h.002Zm11.26 3.2c.316-.548.62-1.104.91-1.667.4.904.752 1.828 1.055 2.769-.967.218-1.945.385-2.93.5a46.45 46.45 0 0 0 .965-1.601Zm.898-4.78c-.29-.551-.59-1.097-.904-1.635a39.221 39.221 0 0 0-.954-1.574 29.54 29.54 0 0 1 2.863.502c-.29.918-.625 1.822-1.005 2.707Zm-6.427-7.03c.653.715 1.27 1.461 1.848 2.237a39.025 39.025 0 0 0-3.712 0 29.507 29.507 0 0 1 1.864-2.236ZM8.482 1.562c1.051-.61 3.374.262 5.823 2.438.156.14.314.285.47.437a32.148 32.148 0 0 0-2.672 3.317 32.65 32.65 0 0 0-4.191.654c-.08-.32-.152-.644-.216-.97-.592-3.024-.2-5.304.786-5.876ZM6.951 18.037c-.262-.075-.52-.155-.775-.243-1.531-.523-2.796-1.206-3.664-1.95-.777-.666-1.17-1.332-1.17-1.87 0-1.146 1.704-2.608 4.547-3.599.357-.124.718-.238 1.08-.34a32.284 32.284 0 0 0 1.532 3.973 32.88 32.88 0 0 0-1.55 4.03Zm7.27 6.128c-1.219 1.068-2.44 1.825-3.516 2.206-.967.342-1.737.352-2.202.083-.99-.572-1.402-2.783-.84-5.748.066-.349.143-.697.229-1.046 1.395.3 2.809.505 4.232.614a32.799 32.799 0 0 0 2.695 3.336c-.195.192-.395.377-.598.555Zm1.532-1.519a30.094 30.094 0 0 1-1.89-2.266c.602.023 1.215.035 1.838.035.64 0 1.273-.014 1.897-.042a28.738 28.738 0 0 1-1.845 2.273Zm8.146 1.87c-.187 1.01-.563 1.684-1.028 1.954-.99.574-3.106-.172-5.388-2.14a21.614 21.614 0 0 1-.79-.72 31.693 31.693 0 0 0 2.632-3.35c1.431-.121 2.852-.34 4.253-.657.064.259.12.512.17.761.314 1.59.36 3.028.151 4.152Zm1.139-6.714c-.172.056-.348.111-.528.165a31.607 31.607 0 0 0-1.59-3.987 31.485 31.485 0 0 0 1.528-3.929c.322.094.633.192.934.296 2.906 1.002 4.679 2.486 4.679 3.626 0 1.217-1.915 2.796-5.023 3.829Z"/><path d="M15.7 16.784a2.813 2.813 0 1 0 .019-5.626 2.813 2.813 0 0 0-.018 5.626Z"/></g></svg>